# xmcd
#
# Track frame offsets: 
#        150
#        14835
#        28377
#        43820
#        65552
#        79585
#        91900
#        106727
#        121620
#        136537
#        150162
#
# Disc length: 2158 seconds
#
# Revision: 4
# Processed by: cddbd v1.5.2PL0 Copyright (c) Steve Scherf et al.
# Submitted via: ExactAudioCopy v0.99pb4
#
DISCID=7e086c0b
DTITLE=Diamond Rio - Close To The Edge
DYEAR=1992
DGENRE=Country
TTITLE0=Oh Me, Oh My, Sweet Baby
TTITLE1=In A Week Or Two
TTITLE2=It Does Get Better Than This
TTITLE3=Sawmill Road
TTITLE4=Calling All Hearts (Come Back Home)
TTITLE5=This Romeo Ain't Got Julie Yet
TTITLE6=I Was Meant to Be With You
TTITLE7=Old Weakness (Coming On Strong)
TTITLE8=Demons And Angels
TTITLE9=Nothing In This World
TTITLE10=Close To The Edge
EXTD=YEAR: 1992 ID3G: 2
EXTT0=
EXTT1=
EXTT2=
EXTT3=
EXTT4=
EXTT5=
EXTT6=
EXTT7=
EXTT8=
EXTT9=
EXTT10=
PLAYORDER=
